<?xml version="1.0" encoding="UTF-8"?>
<!DOCTYPE svg PUBLIC "-//W3C//DTD SVG 1.1//EN" "http://www.w3.org/Graphics/SVG/1.1/DTD/svg11.dtd">
<!-- Creator: CorelDRAW 2019 (64-Bit) -->
<svg xmlns="http://www.w3.org/2000/svg" xml:space="preserve" width="210mm" height="297mm" version="1.1" style="shape-rendering:geometricPrecision; text-rendering:geometricPrecision; image-rendering:optimizeQuality; fill-rule:evenodd; clip-rule:evenodd"
viewBox="0 0 21000 29700"
 xmlns:xlink="http://www.w3.org/1999/xlink">
 <defs>
  <style type="text/css">
   <![CDATA[
    .str1 {stroke:#282829;stroke-width:100;stroke-miterlimit:22.9256}
    .str0 {stroke:#282829;stroke-width:200;stroke-miterlimit:22.9256}
    .str3 {stroke:#282829;stroke-width:20;stroke-miterlimit:22.9256}
    .str2 {stroke:#363636;stroke-width:20;stroke-miterlimit:22.9256}
    .fil8 {fill:none}
    .fil5 {fill:black}
    .fil7 {fill:#232323}
    .fil9 {fill:#303030}
    .fil3 {fill:#363636}
    .fil0 {fill:#979797}
    .fil6 {fill:#CAE3EA}
    .fil4 {fill:#CBCBCB}
    .fil1 {fill:white}
    .fil2 {fill:black;fill-opacity:0.078431}
   ]]>
  </style>
 </defs>
 <g id="Capa_x0020_1">
  <metadata id="CorelCorpID_0Corel-Layer"/>
  <g id="_2414216665744">
   <ellipse class="fil0" cx="15130.25" cy="19694.41" rx="3100.59" ry="1994.86"/>
   <path class="fil1 str0" d="M1538.1 19070.33l15597.36 0c0,418.86 -522.57,1074.3 -1947.48,1074.3l-11695.61 -0.01c-1447.7,0.01 -1954.27,-655.43 -1954.27,-1074.29z"/>
   <path class="fil1 str1" d="M4892.45 4241.98c512.13,-541.93 1090.75,-1006.3 1785.28,-1335.44 -36.84,-339.69 -272.74,-725 -453.7,-1009.38 432.34,-144.87 1139.83,86.79 2149.74,732.28 -404.49,-437.74 -954.56,-858.84 -1617.42,-1266.2 1111.17,-662.45 2548.9,929.44 2873.56,1000.74 1800.7,307.73 3062.05,877.42 3798.8,1701.91 766.05,826.99 1165.02,1984.03 1142.76,3446.01l-10845.14 0c-58.79,-1120 260.41,-2271.32 1166.12,-3269.92z"/>
   <path class="fil1 str1" d="M15707.56 2178.22c37.73,176.82 49.23,336.68 41.37,483.1 496.45,-598.46 1046.3,-1128.28 1649.17,-1589.98 559.58,758.92 631.67,3208.91 -62.68,5001.36 253.15,-214.62 424.31,-430.82 563.46,-637.84 -251.83,1407.29 -1115.31,3174.75 -2233.5,4278.03 140.87,75.38 292.82,257.41 335.37,409.43l-1377.14 0c508.22,0 945.34,-1015.2 945.34,-2108.86l315.84 0.01c271.85,0 271.85,-501.56 -3.49,-488.96l-1309.83 -12.61c22.26,-1461.98 -376.71,-2619.02 -1142.76,-3446.01 1001.05,-260.37 1825.05,-791.2 2278.85,-1887.67z"/>
   <path class="fil2" d="M17546.55 1321.4c575.96,1200.24 194.63,3703.82 -211.13,4751.3 253.15,-214.62 424.31,-430.82 563.46,-637.84 -251.83,1407.29 -1115.31,3174.76 -2233.5,4278.03 96.86,87.87 298.07,257.71 335.37,409.43l-1377.14 0c508.22,0 945.34,-1015.2 945.34,-2108.86l315.84 0.01c271.85,0 271.85,-501.56 -3.49,-488.96l-1309.83 -12.61c11.25,-739.1 -85.16,-1400.26 -282.22,-1980.23 1570.21,-918.76 2972.35,-3213.61 3257.3,-4210.27z"/>
   <path class="fil1 str1" d="M1376.39 1071.34c210.08,112.25 581.85,574.34 1156.68,1476.9l6.03 -382.56c443.33,935.74 1185.45,1661.38 2353.35,2076.3 -905.71,998.6 -1218.2,2124.85 -1166.12,3269.92l-1122.88 0.01c-313.76,0.03 -313.76,501.56 9.07,491.36l314.03 10.19c0,1108.7 355.79,2108.86 906.7,2108.86l-1311.05 0c25.01,-169.54 171.31,-342.32 288.76,-409.44 -1097.62,-1001.06 -2223.4,-3176.96 -2263.88,-4298.42 167.21,381.53 403.7,587.37 555.73,695.35 -605.26,-1186.15 -580.26,-3992.88 273.58,-5038.47z"/>
   <path class="fil2" d="M2582.78 3598.3c-15.33,-93.81 -3.72,-243.62 10.6,-337.58 401.8,1031.66 1007.57,1579.52 1598.53,1986.89 -369.2,723.69 -500.81,1489.69 -465.58,2264.29l-1122.88 0.01c-313.76,0.03 -313.76,501.56 9.07,491.36l314.03 10.19c0,1108.7 355.79,2108.86 906.7,2108.86l-1311.05 0c37.79,-171.28 167.45,-329.76 288.76,-409.44 -1097.62,-1001.06 -2223.4,-3176.96 -2263.88,-4298.42 167.21,381.53 403.7,587.37 555.73,695.35 -565.99,-1109.18 -580.84,-3635.47 117.79,-4813.62 236.54,941.4 929.74,1963.26 1362.18,2302.11z"/>
   <path class="fil3 str2" d="M1506.87 3558.02c369.69,1178.21 763.99,2697.74 2222.76,3416.42 -10.67,178.39 -11.48,357.7 -3.3,537.46l-794.08 743.79c-396.17,-186.04 -960.6,-1031.7 -578.46,-1266.43 -249.88,-554.22 -391.83,-1096.8 -422.34,-1641.96 -186.09,-584.04 -283.05,-1192.85 -424.58,-1789.28z"/>
   <path class="fil3 str2" d="M16780.7 3578.05c-369.69,1178.21 -764,2697.74 -2222.77,3416.41 10.68,178.39 11.49,357.71 3.31,537.46l794.08 743.79c396.17,-186.04 960.6,-1031.69 578.46,-1266.42 249.87,-554.22 391.82,-1096.81 422.34,-1641.97 186.09,-584.04 283.05,-1192.84 424.58,-1789.27z"/>
   <path class="fil4" d="M4892.45 4241.98c512.13,-541.93 1090.75,-1006.3 1785.28,-1335.44 -36.84,-339.69 -272.74,-725 -453.7,-1009.38 432.34,-144.87 1139.83,86.79 2149.74,732.28 -404.49,-437.74 -954.56,-858.84 -1617.42,-1266.2 1111.17,-662.45 2548.9,929.44 2873.56,1000.74 1800.7,307.73 3062.05,877.42 3798.8,1701.91 608.52,656.94 933.11,1463.92 1067.54,2316.26 -568.61,-1104.09 -1157.84,-1868.25 -1831.03,-1868.25 -1124.86,0 -1137.08,1146.84 -3664.05,1146.84 -1702.55,0 -2073.14,-1146.84 -3285.68,-1146.84 -554.69,0 -1247.26,889.2 -1912.38,1864.86 145.31,-743.65 488.1,-1473.88 1089.34,-2136.78z"/>
   <path class="fil5 str1" d="M2612.52 7511.91l13272.27 0c271.85,0 271.85,501.56 0,501.56l-315.84 -0.01c0,1208.24 -483.83,2108.86 -945.34,2108.86l-10790.36 0c-477.95,0 -906.7,-900.62 -906.7,-2108.86l-304.48 0.01c-332.38,0 -328.52,-501.53 -9.55,-501.56z"/>
   <path class="fil6" d="M14955.26 8013.46l-4724.98 0c-409.28,406.36 -170.22,1124.85 416.07,1709.8l3846.39 -10.38c656.26,-535.74 746.72,-1585.47 462.52,-1699.42z"/>
   <path class="fil6" d="M3537.68 8013.46l4724.98 0c409.28,406.36 170.22,1124.85 -416.07,1709.8l-3846.39 -10.38c-656.26,-535.74 -746.72,-1585.47 -462.52,-1699.42z"/>
   <path class="fil5 str3" d="M5789.03 9723.26l1196.93 0c-336.51,0 57.66,-784.2 -587.07,-784.2 -643.75,0 -253.63,784.2 -609.86,784.2z"/>
   <path class="fil5 str3" d="M12703.91 9723.27l-1196.93 0c336.51,0 -57.66,-784.2 587.07,-784.2 643.75,0 253.63,784.2 609.86,784.2z"/>
   <path class="fil6 str1" d="M9007.81 7982.8c122.02,-137.55 439.45,-134.49 556.7,-9.8 145.97,155.22 201.49,535.63 27.69,751.73 -119.1,148.09 -478.77,145.03 -590.75,-2.64 -179.85,-237.18 -138.92,-575.52 6.36,-739.29z"/>
   <path class="fil7" d="M6843.46 6142.89c1175.96,-866.17 -2130.61,33.5 -1071.28,296.71 -832.92,845.99 2283.52,-146.98 1071.28,-296.71z"/>
   <path class="fil7" d="M11942.11 6152.53c-935.21,-1121.84 2061.03,541.11 969.49,543.85 606.9,1020.35 -2182.42,-687.81 -969.49,-543.85z"/>
   <path class="fil8 str1" d="M4892.45 4241.98c512.13,-541.93 1090.75,-1006.3 1785.28,-1335.44 -36.84,-339.69 -272.74,-725 -453.7,-1009.38 432.34,-144.87 1139.83,86.79 2149.74,732.28 -404.49,-437.74 -954.56,-858.84 -1617.42,-1266.2 1111.17,-662.45 2548.9,929.44 2873.56,1000.74 1800.7,307.73 3062.05,877.42 3798.8,1701.91 766.05,826.99 1165.02,1984.03 1142.76,3446.01l-10845.14 0c-58.79,-1120 260.41,-2271.32 1166.12,-3269.92z"/>
   <path class="fil5" d="M6627.21 2756.86c9.59,17.94 62.71,-17.08 66.48,0.88 39.86,189.5 150.05,298.14 454.88,227.26 -308.75,156.66 -475.57,177.64 -521.36,-228.14z"/>
   <rect class="fil1 str0" x="831.51" y="10122.32" width="17010.53" height="8948.01" rx="706.58" ry="706.58"/>
   <path class="fil1 str1" d="M17842.04 15643.32c2662.93,2280.71 3668,5842.83 1200.31,8612.13 -1721.73,2107.44 -5212.97,2649.66 -7173.51,1554.6 -1331.91,-553.88 -2132.89,-1279.41 -3092.97,-1330.07 -848.74,28.4 -1548.54,137.25 -2038.75,844.7 -193.98,350.02 -139.06,1247.91 155.96,1602.51 92.21,158.37 285.48,463.55 -349.77,601.26 116.19,57.01 237.26,79.31 362.96,68.83 -1403.69,1554.93 -2784.49,1087.17 -3686.56,317.41 -1798.27,-1752.63 -2028.35,-5139.74 -72.28,-7366.24 919.98,-1047.17 2417.62,-2002.34 4135,-2275.74 2411.72,-483.01 4163.71,1482.14 5292.73,1954.88 2378.23,1263.99 4118.96,1087.57 5266.88,-1745.86l0 -2838.41z"/>
   <path class="fil1" d="M17842.04 15643.32c459.89,396.78 896.91,855.81 1291.51,1419.2 -331.33,406.98 -777.78,890.6 -1291.51,1419.21l0 -2838.41z"/>
   <path class="fil9" d="M16952.9 25775.85c754.2,-334.32 1439.77,-759.41 2089.45,-1520.4 -1363.98,-272.25 -2480.94,-1325.55 -2739.2,-3630.66 -400.75,218.27 -766.59,334.81 -1086.84,338.13 -543.7,3985.04 712.6,4408.55 1736.59,4812.93z"/>
   <path class="fil1" d="M16952.9 25775.85c-748.24,341.3 -1547.41,575.13 -2857.81,565.67 -436.1,-1204.43 -781.99,-3250.02 -37.59,-5500.14 475.08,111.94 812.13,124.27 1158.81,121.54 -543.7,3985.04 712.6,4408.55 1736.59,4812.93z"/>
   <path class="fil9" d="M11868.84 25810.05c337.74,205.62 1386.82,581.59 2226.25,531.47 -436.1,-1204.43 -781.99,-3250.02 -37.59,-5500.14 -570.31,-178 -975.74,-331.9 -1497.22,-608.01 -1630.75,2021.61 -1048.5,4334.81 -691.44,5576.68z"/>
   <path class="fil1" d="M11868.84 25810.05c-757.05,-299.49 -2041.52,-1137.83 -2652.63,-1269.61 -218.03,-1502.85 -287.14,-4059.69 931.35,-5796.51 471.03,257.05 1508.87,1000.95 2412.72,1489.44 -1630.75,2021.61 -1048.5,4334.81 -691.44,5576.68z"/>
   <path class="fil9" d="M8015.9 24544.74c404.71,-100.82 876.91,-81.2 1200.31,-4.3 -218.03,-1502.85 -287.14,-4059.69 931.35,-5796.51 -920.44,-426.35 -1693.43,-603.81 -2865.13,-471.22 -1120.98,1999.43 -181.46,4595.7 733.47,6272.03z"/>
   <path class="fil1" d="M8015.9 24544.74c-624.38,91.59 -1087.2,415.91 -1284.72,782.24 -1632.98,-646.58 -3356.14,-2767.2 -3537.15,-4804.76 866.86,-1056.28 2522.56,-2040.36 4088.4,-2249.51 -1120.98,1999.43 -181.46,4595.7 733.47,6272.03z"/>
   <path class="fil9" d="M20418.27 20144.63c-101.63,-947.74 -528.2,-1979.2 -1284.72,-3082.11 -331.33,406.98 -777.78,890.6 -1291.51,1419.21 -143.69,469.56 -370.87,875.97 -642.26,1250.07 935.49,1012.33 1994.24,1239.57 3218.49,412.83z"/>
   <path class="fil1" d="M20418.27 20144.63c122.53,1601.67 -316.45,2939.15 -1375.92,4110.82 -1363.98,-272.25 -2480.94,-1325.55 -2739.2,-3630.66 346.57,-237.2 618.02,-513.01 896.63,-892.99 935.49,1012.33 1994.24,1239.57 3218.49,412.83z"/>
   <path class="fil9" d="M6893.08 26927.19c-335.09,-485.38 -341.11,-1151.31 -161.9,-1600.21 -1632.98,-646.58 -3356.14,-2767.2 -3537.15,-4804.76 -2127.12,2280.84 -1655.93,5924.96 25.68,7392.47 1039.72,907.34 2369.05,1096.63 3686.56,-317.41 -166.85,1.54 -277.89,-18.12 -362.96,-68.83 603.65,-123.61 452.69,-451.43 349.77,-601.26z"/>
   <path class="fil2" d="M17842.04 15643.32c2662.93,2280.71 3668,5842.83 1200.31,8612.13 -1721.73,2107.44 -5212.97,2649.66 -7173.51,1554.6 -1331.91,-553.88 -2132.89,-1279.41 -3092.97,-1330.07 -848.74,28.4 -1548.54,137.25 -2038.75,844.7 -193.98,350.02 -139.06,1247.91 155.96,1602.51 92.21,158.37 285.48,463.55 -349.77,601.26 116.19,57.01 237.26,79.31 362.96,68.83 -1001.73,1115.93 -2194.28,566.54 -2621.61,-646 93.27,68.82 168.88,104.92 261.93,90.13 -312.45,-1363.19 -104.35,-2299.64 364.63,-3013.99 533.99,-868.3 1243.98,-1467.91 2152.83,-1752.3 1451.35,-322.6 2691.99,69.07 4404.9,1189.73 3004.39,2063.17 7572.64,-136.64 6947.35,-2360.37 -442.07,-1103.33 -2563.56,2451.54 -5841.14,-876.89 2359.87,1270.74 4128.18,1085.52 5266.88,-1745.86l0 -2838.41z"/>
   <path class="fil8 str1" d="M17842.04 15643.32c2662.93,2280.71 3668,5842.83 1200.31,8612.13 -1721.73,2107.44 -5212.97,2649.66 -7173.51,1554.6 -1331.91,-553.88 -2132.89,-1279.41 -3092.97,-1330.07 -848.74,28.4 -1548.54,137.25 -2038.75,844.7 -193.98,350.02 -139.06,1247.91 155.96,1602.51 92.21,158.37 285.48,463.55 -349.77,601.26 116.19,57.01 237.26,79.31 362.96,68.83 -1403.69,1554.93 -2784.49,1087.17 -3686.56,317.41 -1798.27,-1752.63 -2028.35,-5139.74 -72.28,-7366.24 919.98,-1047.17 2417.62,-2002.34 4135,-2275.74 2411.72,-483.01 4163.71,1482.14 5292.73,1954.88 2359.87,1270.74 4128.18,1085.52 5266.88,-1745.86l0 -2838.41z"/>
  </g>
 </g>
</svg>
